<?xml version="1.0" encoding="UTF-8" standalone="no"?>
<!-- Created with Inkscape (http://www.inkscape.org/) -->
<svg xmlns:inkscape="http://www.inkscape.org/namespaces/inkscape" xmlns:sodipodi="http://sodipodi.sourceforge.net/DTD/sodipodi-0.dtd" xmlns="http://www.w3.org/2000/svg" xmlns:svg="http://www.w3.org/2000/svg" width="4.4511395mm" height="5.4074178mm" viewBox="0 0 4.4511395 5.4074178" version="1.1" id="svg1390" inkscape:version="1.2.1 (9c6d41e410, 2022-07-14)" sodipodi:docname="metronome-drawing.svg">
  
  <defs id="defs1387"/>
  <g inkscape:label="Layer 1" inkscape:groupmode="layer" id="layer1" transform="translate(-2.5796764,-2.9616941)">
    <g style="display:inline;fill:#ffffff;fill-opacity:1;stroke:#f9eaea;stroke-opacity:1" transform="matrix(0.01886076,0,0,0.01886076,20.282571,3.1898098)" id="g1196">
      <path inkscape:connector-curvature="0" id="path1192" d="m -937.05427,273.05173 c -0.48889,-0.48888 -0.88889,-5.10977 -0.88889,-10.26862 0,-8.65452 3.00254,-18.66278 38.83411,-129.44445 21.35875,-66.035588 40.57991,-125.6147053 42.71367,-132.39803875 l 3.87956,-12.33333325 h 32.39027 32.39026 l 7.05883,22.333333 c 3.88236,12.283334 7.48587,22.803609 8.00779,23.378389 0.52193,0.57478 3.82244,-8.509152 7.33448,-20.186516 3.51204,-11.6773634 6.82824,-21.9479169 7.36936,-22.8234529 1.189,-1.9238591 20.02168,3.2199147 20.02168,5.4685281 0,0.7648826 -5.12174,18.1246628 -11.38163,38.5772898 l -11.38163,37.186594 28.71496,88.814367 c 28.60778,88.48283 28.71497,88.85874 28.71497,100.69959 v 11.88522 h -116.44445 c -64.04445,0 -116.84445,-0.4 -117.33334,-0.8889 z m 212.44445,-21.41986 c 0,-2.18454 -45.8638,-143.02314 -46.56949,-143.00566 -0.42011,0.0107 -9.16066,27.66253 -19.42343,61.44919 -10.26276,33.78665 -18.97783,61.94521 -19.3668,62.5746 -0.89297,1.44484 -19.94183,-4.26159 -19.96011,-5.97941 -0.008,-0.69852 10.53936,-35.75917 23.43732,-77.91254 16.79972,-54.905211 23.23343,-77.729517 22.6843,-80.475187 -0.4216,-2.107984 -4.74444,-16.097346 -9.60631,-31.08747 l -8.83975,-27.2547716 h -17.78782 -17.78782 l -13.29941,41.0000006 c -36.06237,111.174548 -64.14735,198.809218 -64.14735,200.161488 0,1.10398 25.41048,1.50518 95.33334,1.50518 52.43333,0 95.33333,-0.43894 95.33333,-0.97542 z" style="fill:#ffffff;fill-opacity:1;stroke:#f9eaea;stroke-width:1.33333;stroke-opacity:1"/>
      <path inkscape:connector-curvature="0" id="path1194" d="m -936.60982,261.68736 c 0,-10.68908 0.89494,-13.69135 42.33333,-142.01502 l 42.33334,-131.095087 31.95686,0.348351 31.95688,0.34835 7.37646,22.918634 c 4.05705,12.60525 7.72542,23.25421 8.15193,23.664357 0.42651,0.410146 3.98477,-9.775887 7.90725,-22.63563 4.40988,-14.4576458 7.70288,-23.1622073 8.62811,-22.8071633 0.82297,0.315804 5.21471,1.6175174 9.75941,2.8926961 4.5447,1.27518 8.2631,2.541804 8.2631,2.8147214 0,0.2729186 -5.09922,17.1438538 -11.33158,37.4909678 -6.23237,20.347113 -11.33237,37.813244 -11.33333,38.813623 -9.7e-4,1.00038 12.89824,41.74152 28.66491,90.53585 27.36204,84.67947 28.66667,89.19322 28.66667,99.18114 v 10.46414 h -116.66667 -116.66667 z m 205.89708,-31.4134 c -28.59861,-89.23292 -40.45541,-124.72936 -41.08537,-123 -0.40071,1.1 -9.12115,29.52388 -19.37876,63.16417 -10.2576,33.64031 -18.97247,61.48647 -19.36636,61.88036 -0.73859,0.73858 -16.66724,-3.55332 -18.33764,-4.94097 -0.51575,-0.42845 9.79722,-35.87703 22.91772,-78.77462 l 23.85545,-77.995611 -7.34648,-22.666667 c -4.04056,-12.466667 -8.55797,-26.433244 -10.03869,-31.036839 l -2.69222,-8.3701723 -18.00408,0.370172 -18.00406,0.370172 -38.52896,119.3333353 c -21.19093,65.63334 -38.87509,120.38334 -39.29815,121.66667 -0.72781,2.20783 4.4275,2.33333 95.84807,2.33333 h 96.61724 z" style="fill:#ffffff;fill-opacity:1;stroke:#f9eaea;stroke-width:1.33333;stroke-opacity:1"/>
    </g>
  </g>
</svg>
